<svg xmlns="http://www.w3.org/2000/svg" width="487" height="220" viewBox="0 0 487 220" version="1.1"><path d="M 268 109.500 L 268 219 377.500 219 L 487 219 487 109.500 L 487 0 377.500 0 L 268 0 268 109.500 M 279 109.500 L 279 208.500 377.750 208.260 L 476.500 208.020 476.500 109.500 L 476.500 10.980 377.750 10.740 L 279 10.500 279 109.500 M 363.175 49.459 C 360.246 50.168, 354.127 52.592, 349.578 54.846 C 335.775 61.686, 325.249 73.779, 319.189 89.758 C 316.963 95.629, 316.624 98.115, 316.566 109 C 316.496 122.311, 317.512 126.982, 322.756 137.448 C 330.649 153.203, 346.130 165.346, 363.664 169.535 C 396.061 177.274, 429.806 156.373, 437.482 123.812 C 445.239 90.913, 424.534 57.232, 391.812 49.518 C 384.196 47.722, 370.468 47.694, 363.175 49.459" stroke="none" fill="#ed1c24" fill-rule="evenodd"/><path d="M 0 109.500 L 0 219 109.500 219 L 219 219 219 109.500 L 219 0 109.500 0 L 0 0 0 109.500 M 109.250 10.755 L 11 11.010 11 109.495 L 11 207.981 109.583 208.240 C 163.804 208.383, 208.354 208.312, 208.583 208.083 C 209.345 207.322, 209.013 11.124, 208.250 10.809 C 207.838 10.639, 163.287 10.615, 109.250 10.755 M 95.379 49.413 C 82.771 52.472, 68.797 61.393, 61.217 71.220 C 37.071 102.526, 47.257 147.605, 82.274 164.405 C 92.976 169.540, 99.108 171.006, 109.799 170.985 C 136.026 170.935, 159.980 153.613, 168.100 128.828 C 170.128 122.635, 170.494 119.565, 170.460 109 C 170.426 98.582, 170.036 95.417, 168.122 90 C 161.105 70.148, 143.669 54.198, 123.886 49.535 C 116.280 47.742, 102.508 47.683, 95.379 49.413" stroke="none" fill="#049344" fill-rule="evenodd"/><path d="M 109.250 10.755 L 11 11.010 11 109.495 L 11 207.981 109.583 208.240 C 163.804 208.383, 208.354 208.312, 208.583 208.083 C 209.345 207.322, 209.013 11.124, 208.250 10.809 C 207.838 10.639, 163.287 10.615, 109.250 10.755 M 279 109.500 L 279 208.500 377.750 208.260 L 476.500 208.020 476.500 109.500 L 476.500 10.980 377.750 10.740 L 279 10.500 279 109.500 M 95.379 49.413 C 82.771 52.472, 68.797 61.393, 61.217 71.220 C 37.071 102.526, 47.257 147.605, 82.274 164.405 C 92.976 169.540, 99.108 171.006, 109.799 170.985 C 136.026 170.935, 159.980 153.613, 168.100 128.828 C 170.128 122.635, 170.494 119.565, 170.460 109 C 170.426 98.582, 170.036 95.417, 168.122 90 C 161.105 70.148, 143.669 54.198, 123.886 49.535 C 116.280 47.742, 102.508 47.683, 95.379 49.413 M 363.175 49.459 C 360.246 50.168, 354.127 52.592, 349.578 54.846 C 335.775 61.686, 325.249 73.779, 319.189 89.758 C 316.963 95.629, 316.624 98.115, 316.566 109 C 316.496 122.311, 317.512 126.982, 322.756 137.448 C 330.649 153.203, 346.130 165.346, 363.664 169.535 C 396.061 177.274, 429.806 156.373, 437.482 123.812 C 445.239 90.913, 424.534 57.232, 391.812 49.518 C 384.196 47.722, 370.468 47.694, 363.175 49.459" stroke="none" fill="#f9faf9" fill-rule="evenodd"/></svg>